<!-- Haikei-style layered waves | grayscale | 4 sine layers | regen: scripts/gen-backgrounds.js -->
<svg xmlns="http://www.w3.org/2000/svg" viewBox="0 0 1440 260" preserveAspectRatio="none"><path d="M0 110 L0 110 L24 116 L48 122 L72 128 L96 134 L120 139 L144 143 L168 146 L192 149 L216 151 L240 152 L264 152 L288 151 L312 149 L336 146 L360 143 L384 138 L408 133 L432 128 L456 122 L480 116 L504 110 L528 103 L552 97 L576 91 L600 86 L624 81 L648 77 L672 73 L696 71 L720 69 L744 68 L768 68 L792 69 L816 71 L840 74 L864 78 L888 82 L912 87 L936 92 L960 98 L984 104 L1008 111 L1032 117 L1056 123 L1080 129 L1104 134 L1128 139 L1152 143 L1176 147 L1200 149 L1224 151 L1248 152 L1272 152 L1296 151 L1320 149 L1344 146 L1368 142 L1392 138 L1416 133 L1440 127 L1440 260 L0 260 Z" fill="#e5e5e5" fill-opacity="0.55"/><path d="M0 150 L0 183 L24 182 L48 179 L72 176 L96 173 L120 169 L144 165 L168 160 L192 155 L216 150 L240 145 L264 140 L288 135 L312 131 L336 127 L360 123 L384 120 L408 118 L432 117 L456 116 L480 116 L504 117 L528 119 L552 121 L576 124 L600 127 L624 131 L648 136 L672 140 L696 145 L720 151 L744 156 L768 161 L792 165 L816 170 L840 174 L864 177 L888 180 L912 182 L936 183 L960 184 L984 184 L1008 183 L1032 181 L1056 179 L1080 176 L1104 173 L1128 168 L1152 164 L1176 159 L1200 154 L1224 149 L1248 144 L1272 139 L1296 134 L1320 130 L1344 126 L1368 123 L1392 120 L1416 118 L1440 117 L1440 260 L0 260 Z" fill="#a3a3a3" fill-opacity="0.4"/><path d="M0 190 L0 183 L24 180 L48 176 L72 173 L96 170 L120 168 L144 166 L168 165 L192 164 L216 164 L240 164 L264 165 L288 167 L312 169 L336 172 L360 175 L384 178 L408 181 L432 185 L456 189 L480 193 L504 197 L528 201 L552 204 L576 207 L600 210 L624 212 L648 214 L672 215 L696 216 L720 216 L744 216 L768 214 L792 213 L816 211 L840 208 L864 205 L888 202 L912 198 L936 195 L960 191 L984 187 L1008 183 L1032 179 L1056 176 L1080 173 L1104 170 L1128 168 L1152 166 L1176 165 L1200 164 L1224 164 L1248 165 L1272 166 L1296 167 L1320 169 L1344 172 L1368 175 L1392 178 L1416 182 L1440 186 L1440 260 L0 260 Z" fill="#737373" fill-opacity="0.3"/><path d="M0 225 L0 208 L24 210 L48 211 L72 213 L96 215 L120 217 L144 220 L168 223 L192 225 L216 228 L240 231 L264 233 L288 235 L312 237 L336 239 L360 241 L384 242 L408 243 L432 243 L456 243 L480 242 L504 242 L528 240 L552 239 L576 237 L600 235 L624 232 L648 230 L672 227 L696 225 L720 222 L744 219 L768 217 L792 214 L816 212 L840 211 L864 209 L888 208 L912 207 L936 207 L960 207 L984 208 L1008 208 L1032 210 L1056 211 L1080 213 L1104 215 L1128 218 L1152 220 L1176 223 L1200 226 L1224 228 L1248 231 L1272 233 L1296 236 L1320 238 L1344 239 L1368 241 L1392 242 L1416 243 L1440 243 L1440 260 L0 260 Z" fill="#404040" fill-opacity="0.25"/></svg>