<!-- Haikei-style blob scatter | grayscale | seed 21, 9 blobs | regen: scripts/gen-backgrounds.js -->
<svg xmlns="http://www.w3.org/2000/svg" viewBox="0 0 800 500" preserveAspectRatio="xMidYMid slice"><path d="M395.2 229.9 Q354.0 229.9 384.6 260.5 Q354.0 229.9 354.0 282.3 Q354.0 229.9 317.2 266.6 Q354.0 229.9 313.5 229.9 Q354.0 229.9 323.9 199.8 Q354.0 229.9 354.0 180.0 Q354.0 229.9 380.1 203.7 Q354.0 229.9 394.3 229.9 Z" fill="rgb(195,195,195)" fill-opacity="0.17"/><path d="M165.4 408.1 Q125.9 408.1 157.5 439.7 Q125.9 408.1 125.9 437.9 Q125.9 408.1 98.9 435.1 Q125.9 408.1 92.6 408.1 Q125.9 408.1 98.1 380.2 Q125.9 408.1 125.9 370.3 Q125.9 408.1 147.6 386.4 Q125.9 408.1 167.6 408.1 Z" fill="rgb(212,212,212)" fill-opacity="0.25"/><path d="M535.0 283.9 Q501.2 283.9 525.7 308.4 Q501.2 283.9 501.2 317.2 Q501.2 283.9 473.4 311.7 Q501.2 283.9 465.7 283.9 Q501.2 283.9 476.6 259.3 Q501.2 283.9 501.2 239.1 Q501.2 283.9 528.3 256.7 Q501.2 283.9 542.7 283.9 Z" fill="rgb(168,168,168)" fill-opacity="0.24"/><path d="M742.6 362.0 Q686.6 362.0 734.6 410.0 Q686.6 362.0 686.6 415.7 Q686.6 362.0 647.6 401.0 Q686.6 362.0 610.0 362.0 Q686.6 362.0 640.5 316.0 Q686.6 362.0 686.6 283.4 Q686.6 362.0 729.9 318.7 Q686.6 362.0 745.6 362.0 Z" fill="rgb(199,199,199)" fill-opacity="0.24"/><path d="M111.7 69.4 Q83.9 69.4 108.1 93.5 Q83.9 69.4 83.9 106.0 Q83.9 69.4 63.6 89.7 Q83.9 69.4 43.8 69.4 Q83.9 69.4 64.2 49.7 Q83.9 69.4 83.9 30.4 Q83.9 69.4 112.3 41.0 Q83.9 69.4 112.4 69.4 Z" fill="rgb(162,162,162)" fill-opacity="0.12"/><path d="M209.3 348.3 Q118.8 348.3 173.8 403.4 Q118.8 348.3 118.8 422.3 Q118.8 348.3 69.1 398.0 Q118.8 348.3 38.5 348.3 Q118.8 348.3 52.9 282.4 Q118.8 348.3 118.8 277.0 Q118.8 348.3 172.9 294.2 Q118.8 348.3 186.5 348.3 Z" fill="rgb(190,190,190)" fill-opacity="0.18"/><path d="M177.5 271.7 Q96.0 271.7 155.4 331.0 Q96.0 271.7 96.0 369.5 Q96.0 271.7 39.1 328.6 Q96.0 271.7 21.6 271.7 Q96.0 271.7 27.9 203.6 Q96.0 271.7 96.0 169.3 Q96.0 271.7 160.4 207.3 Q96.0 271.7 202.8 271.7 Z" fill="rgb(181,181,181)" fill-opacity="0.13"/><path d="M579.4 61.2 Q524.7 61.2 580.6 117.1 Q524.7 61.2 524.7 138.1 Q524.7 61.2 480.0 105.9 Q524.7 61.2 452.7 61.2 Q524.7 61.2 465.3 1.8 Q524.7 61.2 524.7 -0.5 Q524.7 61.2 577.7 8.3 Q524.7 61.2 594.4 61.2 Z" fill="rgb(181,181,181)" fill-opacity="0.21"/><path d="M751.3 66.3 Q679.1 66.3 739.1 126.2 Q679.1 66.3 679.1 146.0 Q679.1 66.3 617.4 128.0 Q679.1 66.3 600.4 66.3 Q679.1 66.3 621.5 8.6 Q679.1 66.3 679.1 -22.0 Q679.1 66.3 731.8 13.6 Q679.1 66.3 768.1 66.3 Z" fill="rgb(176,176,176)" fill-opacity="0.13"/></svg>