<!-- Haikei-style low-poly grid | grayscale strokes | seed 7, 16x10 jittered grid | regen: scripts/gen-backgrounds.js -->
<svg xmlns="http://www.w3.org/2000/svg" viewBox="0 0 1440 900" preserveAspectRatio="xMidYMid slice"><polygon points="0,0 61,0 0,83" fill="none" stroke="rgb(230,230,230)" stroke-width="1"/><polygon points="61,0 78,92 0,83" fill="none" stroke="rgb(152,152,152)" stroke-width="1"/><polygon points="61,0 154,0 78,92" fill="none" stroke="rgb(138,138,138)" stroke-width="1"/><polygon points="154,0 168,116 78,92" fill="none" stroke="rgb(154,154,154)" stroke-width="1"/><polygon points="154,0 299,0 168,116" fill="none" stroke="rgb(161,161,161)" stroke-width="1"/><polygon points="299,0 255,111 168,116" fill="none" stroke="rgb(215,215,215)" stroke-width="1"/><polygon points="299,0 372,0 255,111" fill="none" stroke="rgb(218,218,218)" stroke-width="1"/><polygon points="372,0 341,70 255,111" fill="none" stroke="rgb(223,223,223)" stroke-width="1"/><polygon points="372,0 451,0 341,70" fill="none" stroke="rgb(212,212,212)" stroke-width="1"/><polygon points="451,0 429,79 341,70" fill="none" stroke="rgb(204,204,204)" stroke-width="1"/><polygon points="451,0 534,0 429,79" fill="none" stroke="rgb(223,223,223)" stroke-width="1"/><polygon points="534,0 543,104 429,79" fill="none" stroke="rgb(196,196,196)" stroke-width="1"/><polygon points="534,0 628,0 543,104" fill="none" stroke="rgb(204,204,204)" stroke-width="1"/><polygon points="628,0 604,113 543,104" fill="none" stroke="rgb(202,202,202)" stroke-width="1"/><polygon points="628,0 704,0 604,113" fill="none" stroke="rgb(157,157,157)" stroke-width="1"/><polygon points="704,0 723,97 604,113" fill="none" stroke="rgb(168,168,168)" stroke-width="1"/><polygon points="704,0 813,0 723,97" fill="none" stroke="rgb(199,199,199)" stroke-width="1"/><polygon points="813,0 821,116 723,97" fill="none" stroke="rgb(159,159,159)" stroke-width="1"/><polygon points="813,0 914,0 821,116" fill="none" stroke="rgb(149,149,149)" stroke-width="1"/><polygon points="914,0 907,113 821,116" fill="none" stroke="rgb(179,179,179)" stroke-width="1"/><polygon points="914,0 975,0 907,113" fill="none" stroke="rgb(191,191,191)" stroke-width="1"/><polygon points="975,0 1010,65 907,113" fill="none" stroke="rgb(201,201,201)" stroke-width="1"/><polygon points="975,0 1059,0 1010,65" fill="none" stroke="rgb(171,171,171)" stroke-width="1"/><polygon points="1059,0 1060,82 1010,65" fill="none" stroke="rgb(205,205,205)" stroke-width="1"/><polygon points="1059,0 1186,0 1060,82" fill="none" stroke="rgb(148,148,148)" stroke-width="1"/><polygon points="1186,0 1166,64 1060,82" fill="none" stroke="rgb(208,208,208)" stroke-width="1"/><polygon points="1186,0 1261,0 1166,64" fill="none" stroke="rgb(182,182,182)" stroke-width="1"/><polygon points="1261,0 1235,105 1166,64" fill="none" stroke="rgb(172,172,172)" stroke-width="1"/><polygon points="1261,0 1332,0 1235,105" fill="none" stroke="rgb(167,167,167)" stroke-width="1"/><polygon points="1332,0 1342,86 1235,105" fill="none" stroke="rgb(217,217,217)" stroke-width="1"/><polygon points="1332,0 1440,0 1342,86" fill="none" stroke="rgb(134,134,134)" stroke-width="1"/><polygon points="1440,0 1440,88 1342,86" fill="none" stroke="rgb(186,186,186)" stroke-width="1"/><polygon points="0,83 78,92 0,205" fill="none" stroke="rgb(184,184,184)" stroke-width="1"/><polygon points="78,92 102,190 0,205" fill="none" stroke="rgb(199,199,199)" stroke-width="1"/><polygon points="78,92 168,116 102,190" fill="none" stroke="rgb(195,195,195)" stroke-width="1"/><polygon points="168,116 170,172 102,190" fill="none" stroke="rgb(129,129,129)" stroke-width="1"/><polygon points="168,116 255,111 170,172" fill="none" stroke="rgb(170,170,170)" stroke-width="1"/><polygon points="255,111 248,160 170,172" fill="none" stroke="rgb(233,233,233)" stroke-width="1"/><polygon points="255,111 341,70 248,160" fill="none" stroke="rgb(205,205,205)" stroke-width="1"/><polygon points="341,70 385,170 248,160" fill="none" stroke="rgb(181,181,181)" stroke-width="1"/><polygon points="341,70 429,79 385,170" fill="none" stroke="rgb(203,203,203)" stroke-width="1"/><polygon points="429,79 431,187 385,170" fill="none" stroke="rgb(157,157,157)" stroke-width="1"/><polygon points="429,79 543,104 431,187" fill="none" stroke="rgb(237,237,237)" stroke-width="1"/><polygon points="543,104 530,155 431,187" fill="none" stroke="rgb(127,127,127)" stroke-width="1"/><polygon points="543,104 604,113 530,155" fill="none" stroke="rgb(211,211,211)" stroke-width="1"/><polygon points="604,113 641,203 530,155" fill="none" stroke="rgb(173,173,173)" stroke-width="1"/><polygon points="604,113 723,97 641,203" fill="none" stroke="rgb(146,146,146)" stroke-width="1"/><polygon points="723,97 723,198 641,203" fill="none" stroke="rgb(179,179,179)" stroke-width="1"/><polygon points="723,97 821,116 723,198" fill="none" stroke="rgb(147,147,147)" stroke-width="1"/><polygon points="821,116 819,203 723,198" fill="none" stroke="rgb(222,222,222)" stroke-width="1"/><polygon points="821,116 907,113 819,203" fill="none" stroke="rgb(239,239,239)" stroke-width="1"/><polygon points="907,113 877,182 819,203" fill="none" stroke="rgb(184,184,184)" stroke-width="1"/><polygon points="907,113 1010,65 877,182" fill="none" stroke="rgb(233,233,233)" stroke-width="1"/><polygon points="1010,65 999,202 877,182" fill="none" stroke="rgb(139,139,139)" stroke-width="1"/><polygon points="1010,65 1060,82 999,202" fill="none" stroke="rgb(177,177,177)" stroke-width="1"/><polygon points="1060,82 1108,199 999,202" fill="none" stroke="rgb(140,140,140)" stroke-width="1"/><polygon points="1060,82 1166,64 1108,199" fill="none" stroke="rgb(125,125,125)" stroke-width="1"/><polygon points="1166,64 1176,206 1108,199" fill="none" stroke="rgb(204,204,204)" stroke-width="1"/><polygon points="1166,64 1235,105 1176,206" fill="none" stroke="rgb(211,211,211)" stroke-width="1"/><polygon points="1235,105 1288,183 1176,206" fill="none" stroke="rgb(145,145,145)" stroke-width="1"/><polygon points="1235,105 1342,86 1288,183" fill="none" stroke="rgb(120,120,120)" stroke-width="1"/><polygon points="1342,86 1369,153 1288,183" fill="none" stroke="rgb(177,177,177)" stroke-width="1"/><polygon points="1342,86 1440,88 1369,153" fill="none" stroke="rgb(199,199,199)" stroke-width="1"/><polygon points="1440,88 1440,181 1369,153" fill="none" stroke="rgb(157,157,157)" stroke-width="1"/><polygon points="0,205 102,190 0,261" fill="none" stroke="rgb(184,184,184)" stroke-width="1"/><polygon points="102,190 103,273 0,261" fill="none" stroke="rgb(232,232,232)" stroke-width="1"/><polygon points="102,190 170,172 103,273" fill="none" stroke="rgb(155,155,155)" stroke-width="1"/><polygon points="170,172 195,296 103,273" fill="none" stroke="rgb(186,186,186)" stroke-width="1"/><polygon points="170,172 248,160 195,296" fill="none" stroke="rgb(203,203,203)" stroke-width="1"/><polygon points="248,160 273,288 195,296" fill="none" stroke="rgb(156,156,156)" stroke-width="1"/><polygon points="248,160 385,170 273,288" fill="none" stroke="rgb(132,132,132)" stroke-width="1"/><polygon points="385,170 356,278 273,288" fill="none" stroke="rgb(196,196,196)" stroke-width="1"/><polygon points="385,170 431,187 356,278" fill="none" stroke="rgb(134,134,134)" stroke-width="1"/><polygon points="431,187 464,273 356,278" fill="none" stroke="rgb(185,185,185)" stroke-width="1"/><polygon points="431,187 530,155 464,273" fill="none" stroke="rgb(174,174,174)" stroke-width="1"/><polygon points="530,155 529,256 464,273" fill="none" stroke="rgb(200,200,200)" stroke-width="1"/><polygon points="530,155 641,203 529,256" fill="none" stroke="rgb(218,218,218)" stroke-width="1"/><polygon points="641,203 601,244 529,256" fill="none" stroke="rgb(208,208,208)" stroke-width="1"/><polygon points="641,203 723,198 601,244" fill="none" stroke="rgb(189,189,189)" stroke-width="1"/><polygon points="723,198 747,288 601,244" fill="none" stroke="rgb(213,213,213)" stroke-width="1"/><polygon points="723,198 819,203 747,288" fill="none" stroke="rgb(183,183,183)" stroke-width="1"/><polygon points="819,203 818,243 747,288" fill="none" stroke="rgb(210,210,210)" stroke-width="1"/><polygon points="819,203 877,182 818,243" fill="none" stroke="rgb(193,193,193)" stroke-width="1"/><polygon points="877,182 907,275 818,243" fill="none" stroke="rgb(193,193,193)" stroke-width="1"/><polygon points="877,182 999,202 907,275" fill="none" stroke="rgb(191,191,191)" stroke-width="1"/><polygon points="999,202 1003,297 907,275" fill="none" stroke="rgb(201,201,201)" stroke-width="1"/><polygon points="999,202 1108,199 1003,297" fill="none" stroke="rgb(211,211,211)" stroke-width="1"/><polygon points="1108,199 1067,297 1003,297" fill="none" stroke="rgb(206,206,206)" stroke-width="1"/><polygon points="1108,199 1176,206 1067,297" fill="none" stroke="rgb(225,225,225)" stroke-width="1"/><polygon points="1176,206 1179,287 1067,297" fill="none" stroke="rgb(223,223,223)" stroke-width="1"/><polygon points="1176,206 1288,183 1179,287" fill="none" stroke="rgb(200,200,200)" stroke-width="1"/><polygon points="1288,183 1267,288 1179,287" fill="none" stroke="rgb(195,195,195)" stroke-width="1"/><polygon points="1288,183 1369,153 1267,288" fill="none" stroke="rgb(138,138,138)" stroke-width="1"/><polygon points="1369,153 1328,297 1267,288" fill="none" stroke="rgb(150,150,150)" stroke-width="1"/><polygon points="1369,153 1440,181 1328,297" fill="none" stroke="rgb(239,239,239)" stroke-width="1"/><polygon points="1440,181 1440,270 1328,297" fill="none" stroke="rgb(144,144,144)" stroke-width="1"/><polygon points="0,261 103,273 0,364" fill="none" stroke="rgb(228,228,228)" stroke-width="1"/><polygon points="103,273 70,354 0,364" fill="none" stroke="rgb(124,124,124)" stroke-width="1"/><polygon points="103,273 195,296 70,354" fill="none" stroke="rgb(209,209,209)" stroke-width="1"/><polygon points="195,296 163,377 70,354" fill="none" stroke="rgb(182,182,182)" stroke-width="1"/><polygon points="195,296 273,288 163,377" fill="none" stroke="rgb(218,218,218)" stroke-width="1"/><polygon points="273,288 292,373 163,377" fill="none" stroke="rgb(152,152,152)" stroke-width="1"/><polygon points="273,288 356,278 292,373" fill="none" stroke="rgb(141,141,141)" stroke-width="1"/><polygon points="356,278 370,387 292,373" fill="none" stroke="rgb(159,159,159)" stroke-width="1"/><polygon points="356,278 464,273 370,387" fill="none" stroke="rgb(204,204,204)" stroke-width="1"/><polygon points="464,273 457,373 370,387" fill="none" stroke="rgb(197,197,197)" stroke-width="1"/><polygon points="464,273 529,256 457,373" fill="none" stroke="rgb(159,159,159)" stroke-width="1"/><polygon points="529,256 567,359 457,373" fill="none" stroke="rgb(132,132,132)" stroke-width="1"/><polygon points="529,256 601,244 567,359" fill="none" stroke="rgb(157,157,157)" stroke-width="1"/><polygon points="601,244 614,365 567,359" fill="none" stroke="rgb(232,232,232)" stroke-width="1"/><polygon points="601,244 747,288 614,365" fill="none" stroke="rgb(131,131,131)" stroke-width="1"/><polygon points="747,288 738,379 614,365" fill="none" stroke="rgb(138,138,138)" stroke-width="1"/><polygon points="747,288 818,243 738,379" fill="none" stroke="rgb(150,150,150)" stroke-width="1"/><polygon points="818,243 791,363 738,379" fill="none" stroke="rgb(207,207,207)" stroke-width="1"/><polygon points="818,243 907,275 791,363" fill="none" stroke="rgb(120,120,120)" stroke-width="1"/><polygon points="907,275 899,361 791,363" fill="none" stroke="rgb(205,205,205)" stroke-width="1"/><polygon points="907,275 1003,297 899,361" fill="none" stroke="rgb(120,120,120)" stroke-width="1"/><polygon points="1003,297 971,346 899,361" fill="none" stroke="rgb(237,237,237)" stroke-width="1"/><polygon points="1003,297 1067,297 971,346" fill="none" stroke="rgb(180,180,180)" stroke-width="1"/><polygon points="1067,297 1076,359 971,346" fill="none" stroke="rgb(236,236,236)" stroke-width="1"/><polygon points="1067,297 1179,287 1076,359" fill="none" stroke="rgb(193,193,193)" stroke-width="1"/><polygon points="1179,287 1150,333 1076,359" fill="none" stroke="rgb(166,166,166)" stroke-width="1"/><polygon points="1179,287 1267,288 1150,333" fill="none" stroke="rgb(212,212,212)" stroke-width="1"/><polygon points="1267,288 1240,334 1150,333" fill="none" stroke="rgb(152,152,152)" stroke-width="1"/><polygon points="1267,288 1328,297 1240,334" fill="none" stroke="rgb(164,164,164)" stroke-width="1"/><polygon points="1328,297 1326,381 1240,334" fill="none" stroke="rgb(199,199,199)" stroke-width="1"/><polygon points="1328,297 1440,270 1326,381" fill="none" stroke="rgb(211,211,211)" stroke-width="1"/><polygon points="1440,270 1440,387 1326,381" fill="none" stroke="rgb(184,184,184)" stroke-width="1"/><polygon points="0,364 70,354 0,426" fill="none" stroke="rgb(208,208,208)" stroke-width="1"/><polygon points="70,354 70,445 0,426" fill="none" stroke="rgb(165,165,165)" stroke-width="1"/><polygon points="70,354 163,377 70,445" fill="none" stroke="rgb(193,193,193)" stroke-width="1"/><polygon points="163,377 180,463 70,445" fill="none" stroke="rgb(149,149,149)" stroke-width="1"/><polygon points="163,377 292,373 180,463" fill="none" stroke="rgb(127,127,127)" stroke-width="1"/><polygon points="292,373 262,442 180,463" fill="none" stroke="rgb(167,167,167)" stroke-width="1"/><polygon points="292,373 370,387 262,442" fill="none" stroke="rgb(147,147,147)" stroke-width="1"/><polygon points="370,387 377,462 262,442" fill="none" stroke="rgb(211,211,211)" stroke-width="1"/><polygon points="370,387 457,373 377,462" fill="none" stroke="rgb(139,139,139)" stroke-width="1"/><polygon points="457,373 468,452 377,462" fill="none" stroke="rgb(158,158,158)" stroke-width="1"/><polygon points="457,373 567,359 468,452" fill="none" stroke="rgb(131,131,131)" stroke-width="1"/><polygon points="567,359 558,445 468,452" fill="none" stroke="rgb(160,160,160)" stroke-width="1"/><polygon points="567,359 614,365 558,445" fill="none" stroke="rgb(232,232,232)" stroke-width="1"/><polygon points="614,365 634,439 558,445" fill="none" stroke="rgb(226,226,226)" stroke-width="1"/><polygon points="614,365 738,379 634,439" fill="none" stroke="rgb(190,190,190)" stroke-width="1"/><polygon points="738,379 722,465 634,439" fill="none" stroke="rgb(207,207,207)" stroke-width="1"/><polygon points="738,379 791,363 722,465" fill="none" stroke="rgb(223,223,223)" stroke-width="1"/><polygon points="791,363 785,436 722,465" fill="none" stroke="rgb(121,121,121)" stroke-width="1"/><polygon points="791,363 899,361 785,436" fill="none" stroke="rgb(143,143,143)" stroke-width="1"/><polygon points="899,361 920,468 785,436" fill="none" stroke="rgb(144,144,144)" stroke-width="1"/><polygon points="899,361 971,346 920,468" fill="none" stroke="rgb(169,169,169)" stroke-width="1"/><polygon points="971,346 1006,446 920,468" fill="none" stroke="rgb(175,175,175)" stroke-width="1"/><polygon points="971,346 1076,359 1006,446" fill="none" stroke="rgb(138,138,138)" stroke-width="1"/><polygon points="1076,359 1071,473 1006,446" fill="none" stroke="rgb(174,174,174)" stroke-width="1"/><polygon points="1076,359 1150,333 1071,473" fill="none" stroke="rgb(164,164,164)" stroke-width="1"/><polygon points="1150,333 1155,442 1071,473" fill="none" stroke="rgb(121,121,121)" stroke-width="1"/><polygon points="1150,333 1240,334 1155,442" fill="none" stroke="rgb(120,120,120)" stroke-width="1"/><polygon points="1240,334 1259,468 1155,442" fill="none" stroke="rgb(196,196,196)" stroke-width="1"/><polygon points="1240,334 1326,381 1259,468" fill="none" stroke="rgb(171,171,171)" stroke-width="1"/><polygon points="1326,381 1344,476 1259,468" fill="none" stroke="rgb(156,156,156)" stroke-width="1"/><polygon points="1326,381 1440,387 1344,476" fill="none" stroke="rgb(125,125,125)" stroke-width="1"/><polygon points="1440,387 1440,453 1344,476" fill="none" stroke="rgb(172,172,172)" stroke-width="1"/><polygon points="0,426 70,445 0,536" fill="none" stroke="rgb(212,212,212)" stroke-width="1"/><polygon points="70,445 80,542 0,536" fill="none" stroke="rgb(223,223,223)" stroke-width="1"/><polygon points="70,445 180,463 80,542" fill="none" stroke="rgb(184,184,184)" stroke-width="1"/><polygon points="180,463 168,561 80,542" fill="none" stroke="rgb(206,206,206)" stroke-width="1"/><polygon points="180,463 262,442 168,561" fill="none" stroke="rgb(238,238,238)" stroke-width="1"/><polygon points="262,442 274,567 168,561" fill="none" stroke="rgb(235,235,235)" stroke-width="1"/><polygon points="262,442 377,462 274,567" fill="none" stroke="rgb(160,160,160)" stroke-width="1"/><polygon points="377,462 380,540 274,567" fill="none" stroke="rgb(223,223,223)" stroke-width="1"/><polygon points="377,462 468,452 380,540" fill="none" stroke="rgb(218,218,218)" stroke-width="1"/><polygon points="468,452 446,551 380,540" fill="none" stroke="rgb(215,215,215)" stroke-width="1"/><polygon points="468,452 558,445 446,551" fill="none" stroke="rgb(232,232,232)" stroke-width="1"/><polygon points="558,445 566,543 446,551" fill="none" stroke="rgb(203,203,203)" stroke-width="1"/><polygon points="558,445 634,439 566,543" fill="none" stroke="rgb(204,204,204)" stroke-width="1"/><polygon points="634,439 639,521 566,543" fill="none" stroke="rgb(158,158,158)" stroke-width="1"/><polygon points="634,439 722,465 639,521" fill="none" stroke="rgb(156,156,156)" stroke-width="1"/><polygon points="722,465 732,534 639,521" fill="none" stroke="rgb(215,215,215)" stroke-width="1"/><polygon points="722,465 785,436 732,534" fill="none" stroke="rgb(160,160,160)" stroke-width="1"/><polygon points="785,436 817,560 732,534" fill="none" stroke="rgb(211,211,211)" stroke-width="1"/><polygon points="785,436 920,468 817,560" fill="none" stroke="rgb(127,127,127)" stroke-width="1"/><polygon points="920,468 893,529 817,560" fill="none" stroke="rgb(189,189,189)" stroke-width="1"/><polygon points="920,468 1006,446 893,529" fill="none" stroke="rgb(189,189,189)" stroke-width="1"/><polygon points="1006,446 965,550 893,529" fill="none" stroke="rgb(148,148,148)" stroke-width="1"/><polygon points="1006,446 1071,473 965,550" fill="none" stroke="rgb(175,175,175)" stroke-width="1"/><polygon points="1071,473 1094,566 965,550" fill="none" stroke="rgb(199,199,199)" stroke-width="1"/><polygon points="1071,473 1155,442 1094,566" fill="none" stroke="rgb(228,228,228)" stroke-width="1"/><polygon points="1155,442 1159,527 1094,566" fill="none" stroke="rgb(155,155,155)" stroke-width="1"/><polygon points="1155,442 1259,468 1159,527" fill="none" stroke="rgb(121,121,121)" stroke-width="1"/><polygon points="1259,468 1234,552 1159,527" fill="none" stroke="rgb(189,189,189)" stroke-width="1"/><polygon points="1259,468 1344,476 1234,552" fill="none" stroke="rgb(177,177,177)" stroke-width="1"/><polygon points="1344,476 1376,556 1234,552" fill="none" stroke="rgb(125,125,125)" stroke-width="1"/><polygon points="1344,476 1440,453 1376,556" fill="none" stroke="rgb(126,126,126)" stroke-width="1"/><polygon points="1440,453 1440,558 1376,556" fill="none" stroke="rgb(168,168,168)" stroke-width="1"/><polygon points="0,536 80,542 0,655" fill="none" stroke="rgb(141,141,141)" stroke-width="1"/><polygon points="80,542 74,656 0,655" fill="none" stroke="rgb(201,201,201)" stroke-width="1"/><polygon points="80,542 168,561 74,656" fill="none" stroke="rgb(208,208,208)" stroke-width="1"/><polygon points="168,561 167,632 74,656" fill="none" stroke="rgb(215,215,215)" stroke-width="1"/><polygon points="168,561 274,567 167,632" fill="none" stroke="rgb(212,212,212)" stroke-width="1"/><polygon points="274,567 263,642 167,632" fill="none" stroke="rgb(213,213,213)" stroke-width="1"/><polygon points="274,567 380,540 263,642" fill="none" stroke="rgb(180,180,180)" stroke-width="1"/><polygon points="380,540 376,637 263,642" fill="none" stroke="rgb(231,231,231)" stroke-width="1"/><polygon points="380,540 446,551 376,637" fill="none" stroke="rgb(229,229,229)" stroke-width="1"/><polygon points="446,551 464,637 376,637" fill="none" stroke="rgb(183,183,183)" stroke-width="1"/><polygon points="446,551 566,543 464,637" fill="none" stroke="rgb(233,233,233)" stroke-width="1"/><polygon points="566,543 546,617 464,637" fill="none" stroke="rgb(230,230,230)" stroke-width="1"/><polygon points="566,543 639,521 546,617" fill="none" stroke="rgb(160,160,160)" stroke-width="1"/><polygon points="639,521 650,629 546,617" fill="none" stroke="rgb(229,229,229)" stroke-width="1"/><polygon points="639,521 732,534 650,629" fill="none" stroke="rgb(215,215,215)" stroke-width="1"/><polygon points="732,534 698,642 650,629" fill="none" stroke="rgb(179,179,179)" stroke-width="1"/><polygon points="732,534 817,560 698,642" fill="none" stroke="rgb(167,167,167)" stroke-width="1"/><polygon points="817,560 808,633 698,642" fill="none" stroke="rgb(153,153,153)" stroke-width="1"/><polygon points="817,560 893,529 808,633" fill="none" stroke="rgb(179,179,179)" stroke-width="1"/><polygon points="893,529 903,651 808,633" fill="none" stroke="rgb(235,235,235)" stroke-width="1"/><polygon points="893,529 965,550 903,651" fill="none" stroke="rgb(207,207,207)" stroke-width="1"/><polygon points="965,550 1017,611 903,651" fill="none" stroke="rgb(161,161,161)" stroke-width="1"/><polygon points="965,550 1094,566 1017,611" fill="none" stroke="rgb(211,211,211)" stroke-width="1"/><polygon points="1094,566 1056,618 1017,611" fill="none" stroke="rgb(209,209,209)" stroke-width="1"/><polygon points="1094,566 1159,527 1056,618" fill="none" stroke="rgb(196,196,196)" stroke-width="1"/><polygon points="1159,527 1171,624 1056,618" fill="none" stroke="rgb(206,206,206)" stroke-width="1"/><polygon points="1159,527 1234,552 1171,624" fill="none" stroke="rgb(194,194,194)" stroke-width="1"/><polygon points="1234,552 1285,650 1171,624" fill="none" stroke="rgb(218,218,218)" stroke-width="1"/><polygon points="1234,552 1376,556 1285,650" fill="none" stroke="rgb(130,130,130)" stroke-width="1"/><polygon points="1376,556 1352,652 1285,650" fill="none" stroke="rgb(214,214,214)" stroke-width="1"/><polygon points="1376,556 1440,558 1352,652" fill="none" stroke="rgb(230,230,230)" stroke-width="1"/><polygon points="1440,558 1440,618 1352,652" fill="none" stroke="rgb(141,141,141)" stroke-width="1"/><polygon points="0,655 74,656 0,720" fill="none" stroke="rgb(168,168,168)" stroke-width="1"/><polygon points="74,656 116,730 0,720" fill="none" stroke="rgb(208,208,208)" stroke-width="1"/><polygon points="74,656 167,632 116,730" fill="none" stroke="rgb(213,213,213)" stroke-width="1"/><polygon points="167,632 198,711 116,730" fill="none" stroke="rgb(181,181,181)" stroke-width="1"/><polygon points="167,632 263,642 198,711" fill="none" stroke="rgb(171,171,171)" stroke-width="1"/><polygon points="263,642 295,746 198,711" fill="none" stroke="rgb(233,233,233)" stroke-width="1"/><polygon points="263,642 376,637 295,746" fill="none" stroke="rgb(238,238,238)" stroke-width="1"/><polygon points="376,637 381,693 295,746" fill="none" stroke="rgb(138,138,138)" stroke-width="1"/><polygon points="376,637 464,637 381,693" fill="none" stroke="rgb(198,198,198)" stroke-width="1"/><polygon points="464,637 430,734 381,693" fill="none" stroke="rgb(148,148,148)" stroke-width="1"/><polygon points="464,637 546,617 430,734" fill="none" stroke="rgb(188,188,188)" stroke-width="1"/><polygon points="546,617 516,697 430,734" fill="none" stroke="rgb(176,176,176)" stroke-width="1"/><polygon points="546,617 650,629 516,697" fill="none" stroke="rgb(185,185,185)" stroke-width="1"/><polygon points="650,629 655,707 516,697" fill="none" stroke="rgb(168,168,168)" stroke-width="1"/><polygon points="650,629 698,642 655,707" fill="none" stroke="rgb(201,201,201)" stroke-width="1"/><polygon points="698,642 725,707 655,707" fill="none" stroke="rgb(192,192,192)" stroke-width="1"/><polygon points="698,642 808,633 725,707" fill="none" stroke="rgb(220,220,220)" stroke-width="1"/><polygon points="808,633 828,732 725,707" fill="none" stroke="rgb(131,131,131)" stroke-width="1"/><polygon points="808,633 903,651 828,732" fill="none" stroke="rgb(143,143,143)" stroke-width="1"/><polygon points="903,651 873,717 828,732" fill="none" stroke="rgb(223,223,223)" stroke-width="1"/><polygon points="903,651 1017,611 873,717" fill="none" stroke="rgb(128,128,128)" stroke-width="1"/><polygon points="1017,611 1019,697 873,717" fill="none" stroke="rgb(217,217,217)" stroke-width="1"/><polygon points="1017,611 1056,618 1019,697" fill="none" stroke="rgb(158,158,158)" stroke-width="1"/><polygon points="1056,618 1055,713 1019,697" fill="none" stroke="rgb(197,197,197)" stroke-width="1"/><polygon points="1056,618 1171,624 1055,713" fill="none" stroke="rgb(161,161,161)" stroke-width="1"/><polygon points="1171,624 1187,731 1055,713" fill="none" stroke="rgb(217,217,217)" stroke-width="1"/><polygon points="1171,624 1285,650 1187,731" fill="none" stroke="rgb(146,146,146)" stroke-width="1"/><polygon points="1285,650 1246,720 1187,731" fill="none" stroke="rgb(137,137,137)" stroke-width="1"/><polygon points="1285,650 1352,652 1246,720" fill="none" stroke="rgb(176,176,176)" stroke-width="1"/><polygon points="1352,652 1326,719 1246,720" fill="none" stroke="rgb(192,192,192)" stroke-width="1"/><polygon points="1352,652 1440,618 1326,719" fill="none" stroke="rgb(132,132,132)" stroke-width="1"/><polygon points="1440,618 1440,717 1326,719" fill="none" stroke="rgb(236,236,236)" stroke-width="1"/><polygon points="0,720 116,730 0,812" fill="none" stroke="rgb(127,127,127)" stroke-width="1"/><polygon points="116,730 70,825 0,812" fill="none" stroke="rgb(195,195,195)" stroke-width="1"/><polygon points="116,730 198,711 70,825" fill="none" stroke="rgb(181,181,181)" stroke-width="1"/><polygon points="198,711 168,821 70,825" fill="none" stroke="rgb(140,140,140)" stroke-width="1"/><polygon points="198,711 295,746 168,821" fill="none" stroke="rgb(216,216,216)" stroke-width="1"/><polygon points="295,746 290,785 168,821" fill="none" stroke="rgb(231,231,231)" stroke-width="1"/><polygon points="295,746 381,693 290,785" fill="none" stroke="rgb(200,200,200)" stroke-width="1"/><polygon points="381,693 341,822 290,785" fill="none" stroke="rgb(123,123,123)" stroke-width="1"/><polygon points="381,693 430,734 341,822" fill="none" stroke="rgb(142,142,142)" stroke-width="1"/><polygon points="430,734 474,798 341,822" fill="none" stroke="rgb(190,190,190)" stroke-width="1"/><polygon points="430,734 516,697 474,798" fill="none" stroke="rgb(147,147,147)" stroke-width="1"/><polygon points="516,697 560,818 474,798" fill="none" stroke="rgb(156,156,156)" stroke-width="1"/><polygon points="516,697 655,707 560,818" fill="none" stroke="rgb(172,172,172)" stroke-width="1"/><polygon points="655,707 619,788 560,818" fill="none" stroke="rgb(140,140,140)" stroke-width="1"/><polygon points="655,707 725,707 619,788" fill="none" stroke="rgb(132,132,132)" stroke-width="1"/><polygon points="725,707 696,837 619,788" fill="none" stroke="rgb(177,177,177)" stroke-width="1"/><polygon points="725,707 828,732 696,837" fill="none" stroke="rgb(202,202,202)" stroke-width="1"/><polygon points="828,732 822,797 696,837" fill="none" stroke="rgb(233,233,233)" stroke-width="1"/><polygon points="828,732 873,717 822,797" fill="none" stroke="rgb(198,198,198)" stroke-width="1"/><polygon points="873,717 901,786 822,797" fill="none" stroke="rgb(199,199,199)" stroke-width="1"/><polygon points="873,717 1019,697 901,786" fill="none" stroke="rgb(176,176,176)" stroke-width="1"/><polygon points="1019,697 991,806 901,786" fill="none" stroke="rgb(162,162,162)" stroke-width="1"/><polygon points="1019,697 1055,713 991,806" fill="none" stroke="rgb(130,130,130)" stroke-width="1"/><polygon points="1055,713 1097,791 991,806" fill="none" stroke="rgb(158,158,158)" stroke-width="1"/><polygon points="1055,713 1187,731 1097,791" fill="none" stroke="rgb(188,188,188)" stroke-width="1"/><polygon points="1187,731 1184,792 1097,791" fill="none" stroke="rgb(194,194,194)" stroke-width="1"/><polygon points="1187,731 1246,720 1184,792" fill="none" stroke="rgb(227,227,227)" stroke-width="1"/><polygon points="1246,720 1244,794 1184,792" fill="none" stroke="rgb(128,128,128)" stroke-width="1"/><polygon points="1246,720 1326,719 1244,794" fill="none" stroke="rgb(150,150,150)" stroke-width="1"/><polygon points="1326,719 1373,784 1244,794" fill="none" stroke="rgb(128,128,128)" stroke-width="1"/><polygon points="1326,719 1440,717 1373,784" fill="none" stroke="rgb(178,178,178)" stroke-width="1"/><polygon points="1440,717 1440,784 1373,784" fill="none" stroke="rgb(205,205,205)" stroke-width="1"/><polygon points="0,812 70,825 0,900" fill="none" stroke="rgb(232,232,232)" stroke-width="1"/><polygon points="70,825 116,900 0,900" fill="none" stroke="rgb(129,129,129)" stroke-width="1"/><polygon points="70,825 168,821 116,900" fill="none" stroke="rgb(212,212,212)" stroke-width="1"/><polygon points="168,821 205,900 116,900" fill="none" stroke="rgb(234,234,234)" stroke-width="1"/><polygon points="168,821 290,785 205,900" fill="none" stroke="rgb(173,173,173)" stroke-width="1"/><polygon points="290,785 269,900 205,900" fill="none" stroke="rgb(225,225,225)" stroke-width="1"/><polygon points="290,785 341,822 269,900" fill="none" stroke="rgb(220,220,220)" stroke-width="1"/><polygon points="341,822 365,900 269,900" fill="none" stroke="rgb(175,175,175)" stroke-width="1"/><polygon points="341,822 474,798 365,900" fill="none" stroke="rgb(126,126,126)" stroke-width="1"/><polygon points="474,798 462,900 365,900" fill="none" stroke="rgb(149,149,149)" stroke-width="1"/><polygon points="474,798 560,818 462,900" fill="none" stroke="rgb(217,217,217)" stroke-width="1"/><polygon points="560,818 520,900 462,900" fill="none" stroke="rgb(137,137,137)" stroke-width="1"/><polygon points="560,818 619,788 520,900" fill="none" stroke="rgb(164,164,164)" stroke-width="1"/><polygon points="619,788 631,900 520,900" fill="none" stroke="rgb(214,214,214)" stroke-width="1"/><polygon points="619,788 696,837 631,900" fill="none" stroke="rgb(201,201,201)" stroke-width="1"/><polygon points="696,837 694,900 631,900" fill="none" stroke="rgb(169,169,169)" stroke-width="1"/><polygon points="696,837 822,797 694,900" fill="none" stroke="rgb(181,181,181)" stroke-width="1"/><polygon points="822,797 816,900 694,900" fill="none" stroke="rgb(213,213,213)" stroke-width="1"/><polygon points="822,797 901,786 816,900" fill="none" stroke="rgb(203,203,203)" stroke-width="1"/><polygon points="901,786 913,900 816,900" fill="none" stroke="rgb(199,199,199)" stroke-width="1"/><polygon points="901,786 991,806 913,900" fill="none" stroke="rgb(154,154,154)" stroke-width="1"/><polygon points="991,806 1011,900 913,900" fill="none" stroke="rgb(142,142,142)" stroke-width="1"/><polygon points="991,806 1097,791 1011,900" fill="none" stroke="rgb(233,233,233)" stroke-width="1"/><polygon points="1097,791 1054,900 1011,900" fill="none" stroke="rgb(219,219,219)" stroke-width="1"/><polygon points="1097,791 1184,792 1054,900" fill="none" stroke="rgb(164,164,164)" stroke-width="1"/><polygon points="1184,792 1174,900 1054,900" fill="none" stroke="rgb(179,179,179)" stroke-width="1"/><polygon points="1184,792 1244,794 1174,900" fill="none" stroke="rgb(194,194,194)" stroke-width="1"/><polygon points="1244,794 1252,900 1174,900" fill="none" stroke="rgb(220,220,220)" stroke-width="1"/><polygon points="1244,794 1373,784 1252,900" fill="none" stroke="rgb(131,131,131)" stroke-width="1"/><polygon points="1373,784 1323,900 1252,900" fill="none" stroke="rgb(126,126,126)" stroke-width="1"/><polygon points="1373,784 1440,784 1323,900" fill="none" stroke="rgb(151,151,151)" stroke-width="1"/><polygon points="1440,784 1440,900 1323,900" fill="none" stroke="rgb(226,226,226)" stroke-width="1"/></svg>