<!-- Haikei-style circle scatter | grayscale | seed 42, 26 circles | regen: scripts/gen-backgrounds.js -->
<svg xmlns="http://www.w3.org/2000/svg" viewBox="0 0 800 1200" preserveAspectRatio="xMidYMid slice"><circle cx="481" cy="538" r="54" fill="none" stroke="rgb(203,203,203)" stroke-opacity="0.27"/><circle cx="219" cy="750" r="54" fill="none" stroke="rgb(181,181,181)" stroke-opacity="0.34"/><circle cx="597" cy="368" r="17" fill="rgb(185,185,185)" fill-opacity="0.14"/><circle cx="3" cy="565" r="53" fill="none" stroke="rgb(135,135,135)" stroke-opacity="0.19"/><circle cx="214" cy="74" r="16" fill="none" stroke="rgb(216,216,216)" stroke-opacity="0.18"/><circle cx="138" cy="1011" r="33" fill="none" stroke="rgb(218,218,218)" stroke-opacity="0.26"/><circle cx="30" cy="62" r="37" fill="none" stroke="rgb(195,195,195)" stroke-opacity="0.30"/><circle cx="168" cy="364" r="47" fill="none" stroke="rgb(224,224,224)" stroke-opacity="0.22"/><circle cx="227" cy="352" r="10" fill="rgb(202,202,202)" fill-opacity="0.15"/><circle cx="742" cy="106" r="59" fill="rgb(177,177,177)" fill-opacity="0.09"/><circle cx="89" cy="19" r="26" fill="rgb(182,182,182)" fill-opacity="0.17"/><circle cx="62" cy="864" r="58" fill="rgb(160,160,160)" fill-opacity="0.10"/><circle cx="416" cy="986" r="13" fill="none" stroke="rgb(239,239,239)" stroke-opacity="0.34"/><circle cx="347" cy="694" r="25" fill="none" stroke="rgb(195,195,195)" stroke-opacity="0.31"/><circle cx="236" cy="540" r="53" fill="rgb(206,206,206)" fill-opacity="0.17"/><circle cx="346" cy="654" r="23" fill="rgb(141,141,141)" fill-opacity="0.11"/><circle cx="629" cy="1086" r="11" fill="rgb(182,182,182)" fill-opacity="0.09"/><circle cx="778" cy="214" r="46" fill="none" stroke="rgb(206,206,206)" stroke-opacity="0.25"/><circle cx="131" cy="786" r="25" fill="rgb(152,152,152)" fill-opacity="0.17"/><circle cx="261" cy="951" r="28" fill="rgb(144,144,144)" fill-opacity="0.12"/><circle cx="8" cy="885" r="42" fill="rgb(226,226,226)" fill-opacity="0.10"/><circle cx="483" cy="587" r="16" fill="rgb(135,135,135)" fill-opacity="0.15"/><circle cx="233" cy="331" r="25" fill="none" stroke="rgb(133,133,133)" stroke-opacity="0.36"/><circle cx="458" cy="1186" r="15" fill="none" stroke="rgb(148,148,148)" stroke-opacity="0.23"/><circle cx="316" cy="521" r="29" fill="none" stroke="rgb(205,205,205)" stroke-opacity="0.24"/><circle cx="717" cy="393" r="34" fill="none" stroke="rgb(197,197,197)" stroke-opacity="0.29"/></svg>