<svg xmlns="http://www.w3.org/2000/svg" viewBox="0 0 320 320">
  <rect width="320" height="320" rx="56" fill="#000"/>
  <g transform="translate(35 35) scale(22.7)" fill="#fff">
    <rect x="8.075" y="0.075" width="0.85" height="0.85"/>
    <rect x="9.075" y="0.075" width="0.85" height="0.85"/>
    <rect x="10.075" y="0.075" width="0.85" height="0.85"/>
    <rect x="7.075" y="1.075" width="0.85" height="0.85"/>
    <rect x="8.075" y="1.075" width="0.85" height="0.85"/>
    <rect x="9.075" y="1.075" width="0.85" height="0.85"/>
    <rect x="10.075" y="1.075" width="0.85" height="0.85"/>
    <rect x="6.075" y="2.075" width="0.85" height="0.85"/>
    <rect x="7.075" y="2.075" width="0.85" height="0.85"/>
    <rect x="8.075" y="2.075" width="0.85" height="0.85"/>
    <rect x="9.075" y="2.075" width="0.85" height="0.85"/>
    <rect x="5.075" y="3.075" width="0.85" height="0.85"/>
    <rect x="7.075" y="3.075" width="0.85" height="0.85"/>
    <rect x="8.075" y="3.075" width="0.85" height="0.85"/>
    <rect x="2.075" y="4.075" width="0.85" height="0.85"/>
    <rect x="4.075" y="4.075" width="0.85" height="0.85"/>
    <rect x="5.075" y="4.075" width="0.85" height="0.85"/>
    <rect x="6.075" y="4.075" width="0.85" height="0.85"/>
    <rect x="7.075" y="4.075" width="0.85" height="0.85"/>
    <rect x="3.075" y="5.075" width="0.85" height="0.85"/>
    <rect x="4.075" y="5.075" width="0.85" height="0.85"/>
    <rect x="5.075" y="5.075" width="0.85" height="0.85"/>
    <rect x="6.075" y="5.075" width="0.85" height="0.85"/>
    <rect x="2.075" y="6.075" width="0.85" height="0.85"/>
    <rect x="3.075" y="6.075" width="0.85" height="0.85"/>
    <rect x="4.075" y="6.075" width="0.85" height="0.85"/>
    <rect x="5.075" y="6.075" width="0.85" height="0.85"/>
    <rect x="1.075" y="7.075" width="0.85" height="0.85"/>
    <rect x="2.075" y="7.075" width="0.85" height="0.85"/>
    <rect x="3.075" y="7.075" width="0.85" height="0.85"/>
    <rect x="4.075" y="7.075" width="0.85" height="0.85"/>
    <rect x="5.075" y="7.075" width="0.85" height="0.85"/>
    <rect x="2.075" y="8.075" width="0.85" height="0.85"/>
    <rect x="3.075" y="8.075" width="0.85" height="0.85"/>
    <rect x="4.075" y="8.075" width="0.85" height="0.85"/>
    <rect x="1.075" y="9.075" width="0.85" height="0.85"/>
    <rect x="0.075" y="10.075" width="0.85" height="0.85"/>
    <rect x="2.075" y="10.075" width="0.85" height="0.85"/>
  </g>
</svg>
